<svg width="91" height="112" viewBox="0 0 91 112" fill="none" xmlns="http://www.w3.org/2000/svg">
<path d="M16.8102 1L74.6538 1C83.3855 1 90.464 8.07846 90.464 16.8102V86.2626C90.464 94.9943 83.3855 102.073 74.6538 102.073H16.8102C8.07846 102.073 1 94.9943 1 86.2626L1 16.8102C1 8.07846 8.07846 1 16.8102 1Z" fill="white" stroke="black" stroke-opacity="0.07" stroke-dasharray="8 8"/>
<path fill-rule="evenodd" clip-rule="evenodd" d="M34.0254 49.7932V52.5667H44.8424V63.3845H47.616V52.5667H58.433V49.7932H47.616V38.9766H44.8424V49.7932H34.0254Z" fill="#A1A1A1"/>
<g style="mix-blend-mode:multiply">
<path d="M32.1953 96C32.1953 91.5817 35.777 88 40.1953 88H48.1953C52.6136 88 56.1953 91.5817 56.1953 96V104C56.1953 108.418 52.6136 112 48.1953 112H40.1953C35.777 112 32.1953 108.418 32.1953 104V96Z" fill="#EAF9E8"/>
<path d="M38.1953 98.0003C38.1953 97.2639 38.7923 96.667 39.5286 96.667H40.1484C40.5942 96.667 41.0105 96.4442 41.2578 96.0733L41.7995 95.2607C42.0468 94.8898 42.4631 94.667 42.9089 94.667H45.4817C45.9275 94.667 46.3438 94.8898 46.5911 95.2607L47.1328 96.0733C47.3801 96.4442 47.7964 96.667 48.2422 96.667H48.862C49.5984 96.667 50.1953 97.2639 50.1953 98.0003V104C50.1953 104.737 49.5984 105.334 48.862 105.334H39.5286C38.7923 105.334 38.1953 104.737 38.1953 104V98.0003Z" stroke="#2BC51B" stroke-width="2" stroke-linecap="round" stroke-linejoin="round"/>
<path d="M46.1953 100.667C46.1953 101.772 45.2999 102.667 44.1953 102.667C43.0907 102.667 42.1953 101.772 42.1953 100.667C42.1953 99.5624 43.0907 98.667 44.1953 98.667C45.2999 98.667 46.1953 99.5624 46.1953 100.667Z" stroke="#2BC51B" stroke-width="2" stroke-linecap="round" stroke-linejoin="round"/>
</g>
</svg>
