<svg width="7" height="17" viewBox="0 0 7 17" fill="none" xmlns="http://www.w3.org/2000/svg">
<path d="M5.50086 0C5.10303 0 4.7215 0.158035 4.4402 0.43934C4.15889 0.720644 4.00086 1.10218 4.00086 1.5C4.00086 1.89782 4.15889 2.27936 4.4402 2.56066C4.7215 2.84196 5.10303 3 5.50086 3C5.89868 3 6.28021 2.84196 6.56152 2.56066C6.84282 2.27936 7.00086 1.89782 7.00086 1.5C7.00086 1.10218 6.84282 0.720644 6.56152 0.43934C6.28021 0.158035 5.89868 0 5.50086 0ZM5.14086 4.77C3.95086 4.87 0.700859 7.46 0.700859 7.46C0.500859 7.61 0.560859 7.6 0.720859 7.88C0.880859 8.15 0.860859 8.17 1.05086 8.04C1.25086 7.91 1.58086 7.7 2.13086 7.36C4.25086 6 2.47086 9.14 1.56086 14.43C1.20086 17.05 3.56086 15.7 4.17086 15.3C4.77086 14.91 6.38086 13.8 6.54086 13.69C6.76086 13.54 6.60086 13.42 6.43086 13.17C6.31086 13 6.19086 13.12 6.19086 13.12C5.54086 13.55 4.35086 14.45 4.19086 13.88C4.00086 13.31 5.22086 9.4 5.89086 6.71C6.00086 6.07 6.30086 4.67 5.14086 4.77Z" fill="#092705"/>
</svg>
