<svg width="24" height="24" viewBox="0 0 24 24" fill="none" xmlns="http://www.w3.org/2000/svg">
<path d="M6.98398 17.0166C7.19787 17.2305 7.4701 17.3374 7.80065 17.3374C8.13121 17.3374 8.40343 17.2305 8.61732 17.0166L12.0007 13.6333L15.4132 17.0458C15.627 17.2596 15.8946 17.3615 16.2158 17.3514C16.5363 17.3421 16.8034 17.2305 17.0173 17.0166C17.2312 16.8027 17.3382 16.5305 17.3382 16.1999C17.3382 15.8694 17.2312 15.5971 17.0173 15.3833L13.634 11.9999L17.0465 8.58742C17.2604 8.37353 17.3623 8.10597 17.3522 7.78475C17.3428 7.46431 17.2312 7.19714 17.0173 6.98325C16.8034 6.76936 16.5312 6.66242 16.2007 6.66242C15.8701 6.66242 15.5979 6.76936 15.384 6.98325L12.0007 10.3666L8.58815 6.95409C8.37426 6.7402 8.1071 6.63792 7.78665 6.64725C7.46543 6.65736 7.19787 6.76936 6.98398 6.98325C6.7701 7.19714 6.66315 7.46936 6.66315 7.79992C6.66315 8.13047 6.7701 8.4027 6.98398 8.61659L10.3673 11.9999L6.95482 15.4124C6.74093 15.6263 6.63904 15.8935 6.64915 16.2139C6.65848 16.5351 6.7701 16.8027 6.98398 17.0166ZM12.0007 23.6666C10.3868 23.6666 8.8701 23.3601 7.45065 22.7473C6.03121 22.1351 4.79648 21.3041 3.74648 20.2541C2.69648 19.2041 1.86543 17.9694 1.25332 16.5499C0.640429 15.1305 0.333984 13.6138 0.333984 11.9999C0.333984 10.386 0.640429 8.86936 1.25332 7.44992C1.86543 6.03048 2.69648 4.79575 3.74648 3.74575C4.79648 2.69575 6.03121 1.86431 7.45065 1.25142C8.8701 0.639307 10.3868 0.333252 12.0007 0.333252C13.6145 0.333252 15.1312 0.639307 16.5507 1.25142C17.9701 1.86431 19.2048 2.69575 20.2548 3.74575C21.3048 4.79575 22.1359 6.03048 22.748 7.44992C23.3609 8.86936 23.6673 10.386 23.6673 11.9999C23.6673 13.6138 23.3609 15.1305 22.748 16.5499C22.1359 17.9694 21.3048 19.2041 20.2548 20.2541C19.2048 21.3041 17.9701 22.1351 16.5507 22.7473C15.1312 23.3601 13.6145 23.6666 12.0007 23.6666Z" fill="#FF0000"/>
</svg>
