<svg width="45" height="46" viewBox="0 0 45 46" fill="none" xmlns="http://www.w3.org/2000/svg">
<rect width="45" height="46" rx="22.5" fill="url(#paint0_linear_1961_1954)"/>
<path d="M18.7551 23.0589C18.7551 20.94 20.4345 19.2219 22.5067 19.2219C24.579 19.2219 26.2593 20.94 26.2593 23.0589C26.2593 25.1778 24.579 26.896 22.5067 26.896C20.4345 26.896 18.7551 25.1778 18.7551 23.0589ZM16.7265 23.0589C16.7265 26.3232 19.3143 28.9693 22.5067 28.9693C25.6992 28.9693 28.287 26.3232 28.287 23.0589C28.287 19.7946 25.6992 17.1486 22.5067 17.1486C19.3143 17.1486 16.7265 19.7946 16.7265 23.0589ZM27.165 16.9142C27.1649 17.1874 27.244 17.4545 27.3923 17.6817C27.5407 17.9089 27.7516 18.086 27.9984 18.1906C28.2451 18.2953 28.5167 18.3228 28.7788 18.2696C29.0408 18.2164 29.2816 18.0849 29.4706 17.8918C29.6596 17.6987 29.7883 17.4527 29.8405 17.1848C29.8928 16.9169 29.8661 16.6391 29.764 16.3867C29.6618 16.1343 29.4888 15.9185 29.2667 15.7666C29.0446 15.6148 28.7835 15.5337 28.5163 15.5335H28.5158C28.1577 15.5337 27.8143 15.6792 27.561 15.9381C27.3077 16.197 27.1653 16.548 27.165 16.9142ZM17.959 32.428C16.8615 32.3769 16.265 32.1899 15.8686 32.032C15.343 31.8228 14.9681 31.5736 14.5738 31.1711C14.1795 30.7685 13.9355 30.3854 13.7318 29.848C13.5773 29.4429 13.3945 28.8327 13.3446 27.7105C13.29 26.4973 13.2791 26.1328 13.2791 23.059C13.2791 19.9852 13.2909 19.6218 13.3446 18.4075C13.3945 17.2853 13.5787 16.6764 13.7318 16.27C13.9364 15.7326 14.1801 15.3492 14.5738 14.9461C14.9675 14.5429 15.3421 14.2934 15.8686 14.0851C16.2648 13.9271 16.8615 13.7402 17.959 13.6891C19.1456 13.6333 19.502 13.6222 22.5067 13.6222C25.5115 13.6222 25.8683 13.6343 27.0558 13.6891C28.1533 13.7403 28.7488 13.9286 29.1462 14.0851C29.6718 14.2934 30.0468 14.5435 30.441 14.9461C30.8353 15.3486 31.0784 15.7326 31.2831 16.27C31.4376 16.6752 31.6204 17.2853 31.6703 18.4075C31.7249 19.6218 31.7358 19.9852 31.7358 23.059C31.7358 26.1328 31.7249 26.4963 31.6703 27.7105C31.6203 28.8327 31.4366 29.4427 31.2831 29.848C31.0784 30.3854 30.8348 30.7688 30.441 31.1711C30.0473 31.5733 29.6718 31.8228 29.1462 32.032C28.75 32.19 28.1533 32.377 27.0558 32.428C25.8693 32.4838 25.5128 32.4949 22.5067 32.4949C19.5007 32.4949 19.1452 32.4838 17.959 32.428ZM17.8658 11.6184C16.6675 11.6742 15.8486 11.8685 15.1335 12.153C14.3929 12.4469 13.7659 12.8411 13.1394 13.4807C12.5129 14.1203 12.1284 14.7624 11.841 15.5196C11.5628 16.2513 11.3727 17.0882 11.3182 18.3135C11.2627 19.5408 11.25 19.9331 11.25 23.0589C11.25 26.1847 11.2627 26.5771 11.3182 27.8044C11.3727 29.0298 11.5628 29.8665 11.841 30.5982C12.1284 31.355 12.513 31.9979 13.1394 32.6372C13.7658 33.2765 14.3929 33.6702 15.1335 33.9648C15.85 34.2494 16.6675 34.4436 17.8658 34.4994C19.0667 34.5552 19.4498 34.5692 22.5067 34.5692C25.5637 34.5692 25.9474 34.5562 27.1477 34.4994C28.3461 34.4436 29.1644 34.2494 29.88 33.9648C30.6202 33.6702 31.2476 33.2768 31.8741 32.6372C32.5006 31.9976 32.8843 31.355 33.1725 30.5982C33.4507 29.8665 33.6417 29.0297 33.6953 27.8044C33.7499 26.5762 33.7626 26.1847 33.7626 23.0589C33.7626 19.9331 33.7499 19.5408 33.6953 18.3135C33.6408 17.0881 33.4507 16.2509 33.1725 15.5196C32.8843 14.7628 32.4996 14.1213 31.8741 13.4807C31.2486 12.8401 30.6202 12.4469 29.8809 12.153C29.1644 11.8685 28.346 11.6733 27.1486 11.6184C25.9483 11.5626 25.5646 11.5487 22.5076 11.5487C19.4507 11.5487 19.0667 11.5617 17.8658 11.6184Z" fill="white"/>
<defs>
<linearGradient id="paint0_linear_1961_1954" x1="44.1351" y1="46" x2="-1.85379" y2="1.01087" gradientUnits="userSpaceOnUse">
<stop stop-color="#FBE18A"/>
<stop offset="0.21" stop-color="#FCBB45"/>
<stop offset="0.38" stop-color="#F75274"/>
<stop offset="0.52" stop-color="#D53692"/>
<stop offset="0.74" stop-color="#8F39CE"/>
<stop offset="1" stop-color="#5B4FE9"/>
</linearGradient>
</defs>
</svg>
