<svg width="172" height="108" viewBox="0 0 172 108" fill="none" xmlns="http://www.w3.org/2000/svg">
<path d="M50.0242 83C49.8242 81.6 50.0242 79.9 50.4242 79.1C50.7242 78.4 51.6242 78.1 52.4242 78.4C53.2242 78.7 57.5242 79 62.1242 79C69.0242 78.9 70.8242 79.3 73.7242 81.2C75.7242 82.6 77.5242 84.7 78.0242 86.5C78.4242 88.1 78.3242 91.1 77.8242 93C77.3242 94.9 75.6242 97.6 74.1242 99C72.6242 100.4 70.3242 102.1 69.1242 102.7C67.8242 103.4 63.8242 104.5 60.1242 105.1C55.3242 105.8 52.5242 105.8 50.6242 105.1C48.4242 104.2 47.8242 103.4 47.8242 101C47.8242 98.5 48.1242 98.1 49.6242 98.7C50.5242 99.1 54.0242 99.5 57.3242 99.7C61.2242 100 64.4242 99.6 66.3242 98.7C68.0242 97.9 70.1242 96 71.1242 94.6C72.4242 92.7 72.5242 91.5 71.8242 90C71.2242 88.9 69.6242 87.7 68.1242 87.3C66.5242 87 61.9242 86.4 57.8242 86.1C50.7242 85.5 50.3242 85.4 50.0242 83Z" fill="#2BC51B"/>
<path d="M83.3242 88.5C84.2242 83 85.8242 73.4 86.9242 67.3L89.0242 56H92.4242C94.9242 56 95.9242 56.5 96.1242 57.7C96.2242 58.7 95.1242 66.7 93.6242 75.5C92.1242 84.3 90.8242 92.7 90.8242 94.2C90.8242 96.1 91.6242 97.5 93.3242 98.5C94.7242 99.3 96.5242 100 97.3242 100C98.3242 100 99.1242 98.3 99.8242 94.7C100.324 91.9 101.124 86.4 102.324 75.5L105.624 75.2C108.124 75.1 109.024 75.5 109.624 77.1C110.124 78.6 110.824 79 112.324 78.5C113.424 78.2 115.924 77.4 117.824 76.8C119.724 76.2 123.024 76.1 125.124 76.4C127.524 76.8 129.724 78 131.324 80C133.124 82.1 133.824 84.2 133.824 87C133.824 89.2 133.424 92 132.924 93.2C132.324 94.6 132.324 96.1 132.824 97C133.524 98.1 135.424 98.5 139.524 98.4C143.824 98.3 147.124 97.5 152.124 95.1C155.824 93.4 158.824 91.7 158.824 91.2C158.824 90.8 157.424 89.7 155.624 88.8C153.824 87.8 150.424 85.9 148.124 84.5C145.724 83.1 142.724 82 141.324 82C139.924 82 138.824 81.4 138.824 80.7C138.824 80.1 139.524 78.5 140.324 77.2C141.124 76 142.824 75 144.124 75C145.324 75 151.924 77.9 158.824 81.4C165.924 85.1 171.424 88.5 171.624 89.4C171.724 90.3 171.424 91.9 170.824 93C170.224 94.1 168.924 95 167.824 95C166.724 95 161.624 97.1 156.624 99.6C150.624 102.6 145.524 104.4 142.324 104.7C139.624 105 136.124 104.7 134.624 104.1C133.024 103.5 131.324 102 129.624 98.5L125.924 100.8C123.924 102.1 120.724 103.6 118.824 104.2C116.924 104.7 111.224 105.4 106.324 105.7C99.2242 106.1 96.6242 105.9 94.1242 104.6C92.3242 103.7 90.3242 102.2 89.7242 101.2C88.6242 99.6 88.4242 99.6 86.2242 101.7C84.8242 103.1 82.6242 104 77.8242 104L79.8242 101.2C81.0242 99.5 82.3242 94.7 83.3242 88.5Z" fill="#2BC51B"/>
<path d="M109.424 86.5C109.624 85.4 111.324 83.7 113.024 82.8C114.824 81.8 117.524 81 119.124 81C120.924 81 122.524 81.9 123.824 83.7C125.024 85.3 125.924 87.2 125.924 88C125.924 88.8 124.824 91 123.624 92.9C122.324 94.8 119.924 97.1 118.324 98C116.724 98.9 113.524 100 107.324 101.2L108.124 94.9C108.624 91.4 109.124 87.6 109.424 86.5Z" fill="white"/>
<path d="M36.9236 90.4999C38.4236 87.6999 39.7236 81.7999 41.2236 71.1999L43.3236 55.8999L46.8236 56.1999C49.7236 56.3999 50.4236 56.8999 50.6236 58.9999C50.8236 60.3999 50.0236 66.8999 48.9236 73.4999C47.7236 80.0999 46.1236 87.7999 45.3236 90.4999C44.5236 93.3999 42.3236 97.2999 40.1236 99.7999C38.0236 102.2 34.5236 104.8 32.3236 105.7C30.1236 106.6 25.6236 107.3 22.3236 107.3C18.5236 107.3 15.0236 106.6 12.8236 105.5C10.9236 104.5 8.32359 102.5 7.02359 101.1C5.82359 99.6999 4.32359 96.6999 3.72359 94.4999C3.12359 92.2999 3.02359 89.0999 3.42359 87.4999C3.72359 85.8999 4.62359 83.3999 5.32359 81.9999C6.02359 80.5999 7.42359 78.7999 8.42359 77.8999C9.52359 76.9999 11.8236 75.7999 13.5236 75.0999C15.8236 74.3999 17.6236 74.2999 19.3236 74.9999C20.7236 75.5999 22.0236 76.8999 22.3236 77.9999C22.6236 79.0999 23.4236 79.9999 24.0236 79.9999C24.8236 79.9999 25.2236 78.9999 24.9236 77.1999C24.7236 75.5999 25.3236 73.7999 26.3236 72.7999C27.5236 71.4999 29.5236 70.9999 33.4236 70.9999C38.0236 70.9999 38.8236 71.2999 38.5236 72.6999C38.4236 73.6999 37.6236 74.5999 36.8236 74.6999C36.0236 74.7999 33.5236 75.1999 31.3236 75.4999C27.5236 76.0999 27.4236 76.2999 29.3236 77.5999C30.4236 78.3999 32.5236 78.9999 34.0236 78.9999C36.3236 78.9999 36.8236 79.3999 36.5236 81.2999C36.3236 83.2999 35.7236 83.4999 30.3236 83.7999C26.3236 83.9999 24.0236 84.5999 23.5236 85.5999C23.1236 86.3999 22.4236 86.9999 21.8236 86.9999C21.2236 86.9999 19.9236 85.8999 18.8236 84.4999C17.7236 83.0999 15.9236 81.9999 14.8236 81.9999C13.7236 81.9999 12.0236 82.2999 11.1236 82.7999C10.2236 83.1999 8.92359 84.8999 8.22359 86.4999C7.52359 88.3999 7.32359 90.3999 7.92359 91.9999C8.42359 93.3999 10.7236 95.5999 13.0236 96.8999C15.8236 98.4999 18.9236 99.2999 21.8236 99.2999C24.7236 99.2999 27.8236 98.4999 30.5236 96.8999C33.1236 95.3999 35.6236 92.8999 36.9236 90.4999Z" fill="#2BC51B"/>
<path d="M8.82471 56.2C10.7247 56 12.5247 55.7 12.7247 55.4C12.9247 55.2 13.5247 55 13.8247 55C14.2247 55 14.4247 55.4 14.2247 56C14.0247 56.6 12.6247 57.1 11.0247 57.1C8.52471 57.2 8.62471 57.3 11.8247 58.1C13.7247 58.5 16.5247 59.3 18.1247 59.7C19.6247 60.1 20.7247 60.9 20.5247 61.5C20.3247 62.1 18.4247 62.9 16.2247 63.3C14.1247 63.7 10.9247 63.8 9.32471 63.5C7.62471 63.2 5.32471 62.3 4.02471 61.5C1.92471 60.1 1.92471 59.9 3.52471 58.2C4.52471 57.3 6.92471 56.3 8.82471 56.2Z" fill="#2BC51B"/>
<path d="M0.52376 52.5001C0.32376 54.2001 0.12376 52.8001 0.0237604 49.5001C-0.0762396 44.9001 0.12376 44.0001 0.92376 45.7001C1.42376 47.0001 2.22376 48.2001 2.82376 48.5001C3.42376 48.8001 3.82376 50.0001 3.82376 51.2001C3.72376 53.5001 3.72376 53.5001 2.32376 51.5001C0.923761 49.6001 0.92376 49.6001 0.52376 52.5001Z" fill="#2BC51B"/>
<path d="M5.32369 39C5.72369 37.6 6.82369 35.5 7.72369 34.3C8.62369 33.1 9.62369 32 10.0237 32C10.5237 32 11.1237 33.2 11.4237 34.7C11.8237 36.3 11.9237 39.8 11.7237 42.7C11.3237 47.7 11.4237 47.8 13.2237 46.2C14.4237 45.1 17.0237 44.4 20.7237 44.3C26.0237 44.1 26.1237 44.2 22.3237 44.9C20.1237 45.4 17.0237 46.5 12.3237 49.1L15.8237 48.3C17.7237 47.9 21.3237 47.5 23.8237 47.6C26.4237 47.6 30.6237 48.7 33.6237 50.1C36.5237 51.4 38.9237 52.8 38.8237 53.2C38.8237 53.7 37.7237 54.4 36.3237 55C34.9237 55.5 32.0237 56 29.8237 56C27.6237 56 23.2237 54.9 20.0237 53.5C16.6237 52 13.5237 51.2 12.3237 51.6C11.2237 51.9 9.52369 53 8.42369 53.9C6.92369 55.2 6.62369 55.3 6.92369 54C7.12369 53.2 6.62369 50 5.92369 47C5.22369 44 4.92369 40.4 5.32369 39Z" fill="#2BC51B"/>
<path d="M125.324 20C122.824 20 120.824 19.6 120.824 19C120.824 18.4 122.824 18 125.324 18C127.824 18 129.824 18.4 129.824 19C129.824 19.6 127.824 20 125.324 20Z" fill="#2BC51B"/>
<path d="M16.2238 25.5C16.5238 23.8 18.4238 20.9 20.8238 18.8V18.7C23.0238 16.7 25.2238 15 25.7238 15C26.2238 15 26.3238 15.8 26.1238 16.7C25.8238 17.7 25.2238 21.4 24.8238 25C24.4238 28.6 23.5238 32.7 22.9238 34.2C22.3238 35.8 21.8238 37.3 21.8238 37.7C21.7238 38.2 22.4238 37.8 23.3238 37C24.2238 36.2 24.9238 35.9 24.8238 36.5C24.8238 37.1 27.5238 37.5 31.1238 37.5C36.1238 37.5 38.5238 38.1 43.1238 40.5C46.2238 42.1 48.8238 43.8 48.8238 44.2C48.8238 44.7 47.1238 45.5 45.1238 46.1C43.0238 46.7 39.5238 47 37.3238 46.7C35.1238 46.3 31.4238 44.7 29.1238 43C26.7238 41.4 23.9238 40 22.8238 40C21.7238 40 20.6238 40.4 20.3238 41C20.0238 41.6 19.4238 42 18.8238 42C18.2238 42 17.3238 39 16.7238 35.2C16.1238 31.5 15.9238 27.1 16.2238 25.5Z" fill="#2BC51B"/>
<path d="M30.3242 15C31.4242 13.8 33.9242 12 35.8242 10.9C37.7242 9.9 39.6242 9.1 40.0242 9C40.5242 9 40.8242 9.1 40.8242 9.2C40.8242 9.4 39.9242 12.2 38.8242 15.5C37.6242 18.8 35.6242 23.4 34.3242 25.7C32.9242 28.1 31.8242 30.2 31.8242 30.5C31.8242 30.8 35.5242 30.7 48.3242 29.8L59.3242 38L56.5242 39C55.0242 39.5 51.9242 40 49.6242 40C46.4242 40 43.9242 39.1 39.8242 36.5C36.8242 34.6 33.7242 33 33.1242 33C32.4242 33 30.7242 33.4 29.3242 34C27.6576 34.6667 26.8242 34.6667 26.8242 34C26.8242 33.4 27.2242 33 27.8242 33C28.4242 33 28.7242 29.9 28.5242 25.1C28.3242 18.4 28.6242 16.9 30.3242 15Z" fill="#2BC51B"/>
<path d="M62.8244 5.9C63.7244 4.6 65.9244 2.7 67.8244 1.8C69.7244 0.8 71.6244 0 72.0244 0C72.5244 0 72.6244 1.5 72.3244 3.2C72.1244 5 71.5244 8 71.1244 9.9C70.7244 11.8 69.1244 14.4 64.8244 18H67.3244C68.9244 18 71.4244 16.5 74.0244 13.9C76.4244 11.7 79.9244 8.8 81.8244 7.5C83.7244 6.2 86.5244 4.9 88.0244 4.6C89.8911 4.2 90.8244 4.4 90.8244 5.2C90.9244 5.9 89.4244 8.1 87.6244 10C85.8244 12 83.0244 14.2 81.3244 14.9C78.9244 15.9 78.6244 16.3 79.8244 17.1C80.6244 17.6 82.0244 18 82.8244 18C83.6244 17.9 85.4244 16.7 86.8244 15.1C88.2244 13.5 90.8244 11.5 92.5244 10.6C94.3244 9.7 97.6244 8.7 99.8244 8.2C103.124 7.6 103.824 7.8 103.824 9C103.824 9.8 103.324 11.2 102.624 12.2C101.924 13.1 99.7244 14.8 97.8244 15.9C95.9244 17.1 93.4244 18 92.3244 18.1C90.9911 18.1 91.4911 18.5667 93.8244 19.5C96.8244 20.6 97.6244 20.6 99.8244 19.2C101.224 18.3 103.924 16.8 105.824 15.9C107.724 15 111.824 13.7 114.824 13C117.824 12.4 121.024 12.1 121.824 12.4C123.024 12.9 122.824 13.5 120.824 15.5C119.424 16.9 116.524 18.5 114.324 19.1C112.124 19.7 107.824 20.5 104.824 21C100.324 21.8 101.324 21.9 121.324 21.2L107.324 23.6L114.824 24.8C118.924 25.5 124.624 27.3 127.524 28.8C130.324 30.3 134.524 33.1 136.924 35C139.224 36.9 141.824 39.1 142.724 39.8C144.024 40.9 143.224 41 137.324 40.6C132.924 40.2 128.724 39.2 126.024 37.8C123.724 36.5 118.224 33.2 113.824 30.5C109.324 27.7 105.424 25.8 105.024 26.3C104.624 26.7 105.324 28.7 106.524 30.8C107.724 32.8 109.124 37.1 109.524 40.3C110.224 45.1 110.124 46 108.824 46.1C108.024 46.1 105.724 44.2 103.824 42C101.924 39.7 99.1244 35.5 97.6244 32.7C96.1244 29.8 94.8244 26.8 94.8244 26C94.8244 25.2 94.1244 23.5 93.3244 22.2C92.3244 20.8 90.8244 20 86.3244 20L89.5244 22.5C91.4244 23.9 93.0244 26.2 93.3244 27.7C93.6244 29.3 95.4244 33.1 97.3244 36.2C99.2244 39.4 100.524 42.2 100.024 42.4C99.6244 42.7 97.7244 42.4 95.8244 41.9C93.9244 41.4 91.3244 40.3 90.0244 39.5C88.8244 38.7 87.2244 37 86.4244 35.7C85.6244 34.5 84.3244 31.2 83.4244 28.5C82.5244 25.7 81.0244 22.7 80.1244 21.8C79.1244 20.9 76.8244 19.7 75.0244 19.3C72.6244 18.7 71.8244 18.8 71.8244 19.7C71.8244 20.4 72.2244 21 72.8244 21C73.4244 21 74.8244 22.1 76.0244 23.4C77.3244 24.8 79.1244 28.5 80.1244 31.7C81.1244 34.9 81.7244 37.6 81.4244 37.7C81.0244 37.9 79.1244 37.1 77.0244 36.1C75.0244 35 72.6244 33.2 71.8244 32C71.0244 30.8 69.1244 28 67.5244 25.9C66.0244 23.7 64.2244 21.8 63.5244 21.5C62.9244 21.2 59.8244 21.6 56.8244 22.4C52.1244 23.6 51.8244 23.8 54.5244 23.9C56.3244 24 58.8244 24.4 60.0244 24.8C61.3244 25.3 63.5244 27.8 65.0244 30.3C66.6244 32.9 68.6244 35.4 69.5244 35.9C71.0244 36.6 70.6244 36.9 67.5244 37.4C65.2244 37.8 62.8244 37.5 61.0244 36.6C59.5244 35.9 56.5244 33.6 54.3244 31.6C52.1244 29.6 49.2244 27.7 47.8244 27.3C46.4244 27 44.0244 27 42.3244 27.3C40.6244 27.6 38.4244 28.2 37.3244 28.6C35.5244 29.4 35.5244 29.2 37.6244 26.5C38.9244 24.8 41.5244 20.2 43.4244 16.2C45.9244 10.8 47.9244 8.2 51.0244 6C53.4244 4.3 55.9244 3 56.5244 3C57.2244 3 57.8244 4 57.8244 5.2C57.8244 6.5 56.9244 9.3 55.9244 11.5C54.9244 13.7 52.2244 17.2 50.0244 19.2C47.7244 21.3 46.4244 23 47.0244 23C47.7244 22.9 49.9244 22.1 51.8244 21.2C54.3244 20 56.2244 17.8 58.3244 13.9C60.0244 10.7 62.0244 7.2 62.8244 5.9Z" fill="#2BC51B"/>
</svg>
