<?xml version="1.0" encoding="utf-8"?>
<!-- Generator: Adobe Illustrator 27.8.0, SVG Export Plug-In . SVG Version: 6.00 Build 0)  -->
<svg version="1.1" id="Layer_2" xmlns="http://www.w3.org/2000/svg" xmlns:xlink="http://www.w3.org/1999/xlink" x="0px" y="0px"
	 viewBox="0 0 4542.06 2835.13" style="enable-background:new 0 0 4542.06 2835.13;" xml:space="preserve">
<style type="text/css">
	.st0{fill:#45B649;}
</style>
<g>
	<path class="st0" d="M1498.83,1105.3c-40.03,64.4-82.24,158.22-126.72,281.37c-44.56,123.15-76.07,224.11-94.6,302.78
		c-34.55,102.78-68.93,179.55-103.22,230.46c-34.29,50.83-84.77,97.74-151.52,140.56c-50.65,32.46-106.26,58.31-166.93,77.37v-0.09
		c0,0-0.09,0-0.17,0.09h-0.09c-0.17,0.09-0.44,0.17-0.78,0.26c-18.89,6.01-38.21,11.31-58.05,15.93c-2.52,0.61-4.96,1.13-7.22,1.74
		c-41.34,8.44-101.83,16.62-180.33,17.15h-0.7c-0.61,0-1.31-0.09-2-0.09c-114.53-4.18-188.51-49.35-222.02-135.33
		c-7.94-23.73-18.45-63.27-6.96-121.76c11.57-58.57,32.9-108.18,64.05-148.91c31.24-40.82,60.66-73.54,88.42-98.26
		c27.76-24.72,56.4-41.95,86.16-51.78c18.71-5.14,34.12-4.44,46.13,2.18c12.01,6.61,20.8,16.45,26.37,29.5
		c5.48,13.05,8.62,24.02,9.31,32.9c0.7,8.88,3.31,11.75,8.01,8.62c-29.24,16.36-58.66,33.07-88.34,50.13
		c-29.68,17.14-56.14,49.09-79.37,95.91c-23.15,46.91-22.72,87.99,1.22,123.32c21.84,32.2,64.23,50.22,127.15,53.87
		c0,0,2.96,1.57,17.67,0.7h0.09c0.09,0.09,0.17,0.09,0.35,0c21.32-1.04,66.75-6.96,161.88-28.63c0.26-0.09,0.52-0.09,0.78-0.17
		c10.18-3.74,20.28-7.92,30.29-12.45c48.39-21.93,88.68-45.43,120.89-70.49c26.2-26.89,45.17-49.52,57.09-67.97
		c11.84-18.45,19.76-34.2,23.67-47.26c3.83-13.05,7.83-26.72,11.92-40.99c9.75-38.03,18.97-77.02,27.85-117.06
		c13.14-61.01,37.6-139.86,73.11-236.72c35.6-96.87,71.1-171.71,106.44-224.71c11.4-14.62,38.12-28.2,80.33-40.73
		C1421.11,1114.18,1461.05,1107.04,1498.83,1105.3z"/>
	<path class="st0" d="M684.3,2013.9c-14.71,0.87-17.67-0.7-17.67-0.7C672.38,2013.64,678.21,2013.9,684.3,2013.9z"/>
	<path class="st0" d="M855.84,2137.75v0.09c-0.09,0-0.09,0-0.17,0C855.75,2137.75,855.84,2137.75,855.84,2137.75z"/>
	<path class="st0" d="M699.64,1948.82c-4.1-9.45-4.25-23.75-0.44-42.91c0.36-1.81,1.84-7.7,4.42-17.67
		c2.57-9.96,13.98-21.7,34.23-35.26c6.82-4.23,39.71-18.2,98.64-41.89c-90.76-4.75-135.9-21.3-135.44-49.65
		c0.02-6.09,0.66-12.33,1.94-18.72c5.99-30.12,24.26-55.79,54.8-77.02c11.36-7.05,24.01-12.49,37.91-16.25
		c15.08-3.61,31.1-7.02,48.08-10.22c11.97-1.99,24.01-4.45,36.16-7.36c12.13-2.91,27.8-7.53,47.01-13.88
		c19.21-6.33,35-15.56,47.37-27.66c4.6,8.9,5.09,22.48,1.47,40.72c-0.46,2.29-2.12,8.65-5.02,19.14
		c-2.88,10.46-14.44,22.46-34.67,36c-14.08,8.59-28.85,14.74-44.34,18.45c-20.94,5.02-39.55,8.4-55.84,10.12
		c-14.4,2.16-28.9,4.98-43.55,8.49c-19.64,6.45-31.13,18.12-34.48,34.99l-0.82,4.11c1.3,27.5,16.41,43.22,45.34,47.14
		c28.92,3.92,63.26,1.12,103.04-8.42c31.82-7.63,53.95-14.66,66.42-21.14c-0.05,2.19-1.33,9.67-3.87,22.45
		c-1.64,8.22-4.35,18.3-8.12,30.29c-3.79,12-8.34,20.36-13.68,25.12c-10.58,9.06-24.58,16.32-42.01,21.8
		c-11.49,3.63-23.3,6.89-35.43,9.8l-26.25,5.65l-20.59,4.28c-20.51,4.92-43.18,11.66-68.01,20.22
		C729.08,1928.08,710.98,1937.86,699.64,1948.82z"/>
	<path class="st0" d="M2029.88,1635.65c-3.74-25.76-13.93-45.95-30.64-60.66c-20.54-17.06-40.38-30.11-59.7-39.16
		c-19.23-9.05-38.38-17.06-57.53-24.02c-25.33-9.05-51.87-21.06-79.55-36.03c-27.68-14.97-54.22-35.42-79.63-61.18
		c-18.36,24.37-34.99,52.83-49.87,85.2c-3.92,8.35-7.4,16.71-10.53,25.06c-13.92,37.95-16.62,65.88-8.18,83.64
		c12.18,20.54,30.11,35.16,53.79,43.86c23.67,8.7,48.48,15.23,74.33,19.58c25.85,4.35,48.39,10.62,67.71,18.8
		c19.32,8.18,27.94,27.33,25.85,57.27c-100.96,37.95-187.03,61.79-258.22,71.54c-71.19,9.75-130.11,14.62-176.59,14.62
		c-19.15,0-37.16-0.7-53.87-2.09c-47.95-3.92-81.72-10.53-101.39-19.93c-10.44,23.67-19.76,51.61-28.11,83.72
		c-6.79,27.85-9.31,52.48-7.66,73.89c1.65,21.5,10.01,34.29,25.15,38.47c41.43,5.57,81.9,8.36,121.23,8.36
		c35.51,0,69.97-2.26,103.31-6.79c129.42-17.41,248.47-57.53,357.18-120.19c31.07-18.1,60.57-41.34,88.51-69.54
		c29.07-29.94,51.52-62.14,67.45-96.6C2027.97,1690.65,2033.62,1661.41,2029.88,1635.65z"/>
	<path class="st0" d="M2179.87,1702.49c0,0.17,0.09,0.35,0.09,0.52c0.09,0,0.09,0,0.17,0
		C2181.52,1703.01,2181.44,1702.84,2179.87,1702.49z"/>
	<path class="st0" d="M2179.87,1702.49c0,0.17,0.09,0.35,0.09,0.52c0.09,0,0.09,0,0.17,0
		C2181.52,1703.01,2181.44,1702.84,2179.87,1702.49z M2475.69,1933.99c-4.35,5.48-8.7,10.62-13.14,15.23
		c1.65,1.65,3.48,3.31,5.4,5.14C2475.69,1949.83,2478.21,1943.04,2475.69,1933.99z M2475.69,1933.99
		c-4.35,5.48-8.7,10.62-13.14,15.23c1.65,1.65,3.48,3.31,5.4,5.14C2475.69,1949.83,2478.21,1943.04,2475.69,1933.99z"/>
	<path class="st0" d="M4340.42,1577.08c-58.75-3.13-112.53-11.31-161.44-24.54c-66.93-21.93-120.8-44.39-161.7-67.36
		c-42.03-25.76-83.29-59.96-123.67-102.44c-20.02-30.64-31.77-45.95-35.25-45.95l-14.8,3.13c-36.64,20.19-74.5,72.76-113.66,157.79
		l-4.87,10.44c-8.01,17.41-12.88,33.77-14.62,49.09c-3.92,20.89,15.84,43.95,59.27,69.02c93.04,36.9,206.96,57.27,341.86,61.1
		c-216.1,106.26-367.53,159.44-454.13,159.44c-88.08,0-158.92-12.79-212.53-38.47c35.33-48.3,60.31-97.65,75.11-148.13
		c16.45-56.05,20.89-100.87,13.23-134.29c-7.66-33.42-26.46-64.06-56.4-91.99c-29.94-27.85-82.77-45.95-158.4-54.31
		c-74.5-6.27-144.82-0.61-210.96,16.97c-66.14,17.58-127.24,42.73-183.38,75.54c-56.05,32.72-106.7,68.41-151.78,107.05
		c-45.17,38.73-83.64,75.63-115.49,110.79c-29.94,33.51-68.49,68.49-115.49,105.05l17.32-37.68c-0.17,0.17-0.26,0.09-0.26-0.44
		l2.09-5.74c5.22-25.15,16.88-56.05,35.07-92.78c18.1-36.73,38.9-73.54,62.31-110.53c-1.48,1.74-7.05,0.35-16.71-4.18
		c-9.57-4.53-25.5-7.48-47.52-8.88c-22.11-1.39-45.26,1.92-69.54,9.92c-24.28,8.01-46.56,23.15-66.75,45.43
		c-21.58,27.59-36.81,61.88-45.78,102.96c-9.05,41.17-14.27,75.28-15.84,102.44c-4.35,26.46-8.01,40.21-10.97,41.25
		c0,0.35,0,0.7-0.09,1.04c-16.8,15.75-35.68,28.37-56.66,37.68c-24.19,9.4-44.82,14.1-61.88,14.1c-14.19,0-25.85-3.13-35.07-9.4
		c-15.06-9.75-25.94-23.59-32.64-41.6c2.79-7.83,5.57-16.01,8.27-24.54c15.67-48.56,32.03-104.09,49-166.4
		c24.54-90.25,53.7-184.68,87.47-283.46c33.77-98.78,73.02-185.81,117.58-261.01c-35.25,1.74-73.45,9.83-114.71,24.28
		c-41.25,14.45-68.15,30.2-80.68,47.26c-38.47,61.36-69.45,126.54-92.77,195.73c-23.32,69.1-43.86,138.73-61.53,208.7
		c-12.01,46.04-24.63,90.86-37.77,134.55c-13.23,43.78-57.01,147.87-131.42,312.27c60.57-3.48,107.22-12.97,139.86-28.46
		c26.46-12.53,48.13-30.2,65.19-53.09c0.26,0.7,0.52,1.39,0.87,2.09c14.36,46.74,36.21,72.85,65.62,78.42
		c29.42,5.57,49.69,8.36,61.1,8.36c40.47,0,86.07-12.71,136.81-38.12c30.9-15.49,61.1-35.16,90.43-59.36
		c9.23,3.66,19.58,8.01,30.98,13.05c89.21,39.25,179.72,62.84,271.71,70.84c91.9,8.01,182.94,5.4,273.02-7.83
		c89.99-13.23,161.27-34.46,213.75-63.53c17.41-9.66,34.29-20.71,50.57-33.07c25.41,42.91,67.97,73.28,127.68,91.12
		c94.78,28.37,203.22,19.58,325.24-26.37c77.54-32.81,161.88-73.72,253-122.8c91.12-49.17,157.87-73.72,200.08-73.72
		c36.64,9.05,75.98-22.28,117.84-94.08C4407.52,1617.72,4399.17,1580.21,4340.42,1577.08z M2180.13,1703.01c-0.09,0-0.09,0-0.17,0
		c0-0.17-0.09-0.35-0.09-0.52C2181.44,1702.84,2181.52,1703.01,2180.13,1703.01z M2467.94,1954.36c-1.92-1.83-3.74-3.48-5.4-5.14
		c4.44-4.61,8.79-9.75,13.14-15.23C2478.21,1943.04,2475.69,1949.83,2467.94,1954.36z M3328.94,1660.71
		c-8.27,30.98-23.41,59.01-45.34,83.9c-21.93,24.89-56.74,47.78-104.35,68.67c-143.6,43.6-296.17,40.47-457.78-9.4
		c72.06-83.99,139.34-144.91,201.91-182.85c62.58-37.95,121.06-62.4,175.37-73.19c54.31-10.79,100.17-12.27,137.77-4.44
		c37.6,7.83,64.05,19.76,79.37,35.77C3332.77,1602.58,3337.12,1629.73,3328.94,1660.71z"/>
	<path class="st0" d="M855.84,2137.75v0.09c-0.09,0-0.09,0-0.17,0C855.75,2137.75,855.84,2137.75,855.84,2137.75z"/>
	<g>
		<g>
			<path class="st0" d="M1415.22,580.45c0.36,0.53,0.94,0.93,1.63,1.22c4.44,1.84,22.81-9.89,44-25.45
				c22.07-13.93,47.36-31.4,63.4-43.43c28.43-18.31,47.48-36.67,60.74-55.48c13.61-17.86,21.67-35.52,27.2-53.91
				c5.59-18.28,8.81-36.78,13.71-55.11c4.92-18.32,11.41-36.82,24.8-52.92c21.73-26.78,70.33-64.1,114.93-86.24
				c22.07-11.89,42.6-22.02,56.41-28.68c13.71-5.76,20.71-8.79,16.07-8.01c-62.39,29.49-127.58,59.24-187.11,93.54
				c-59.45,33.99-113.17,71.16-154.54,109.4c-21.4,18.06-38.49,38.16-53.02,56.75c-14.28,18.92-26.3,35.88-33,54.09
				C1396.29,521.77,1396.6,552.96,1415.22,580.45z"/>
			<path class="st0" d="M1735.74,685.28c-12.74-12-23.09-24.98-33.26-39.01c-10.2-14.02-20.16-28.76-32.36-41.97
				c-12.17-13.08-26.76-25.15-46.23-32.36c-19.18-6.24-43.49-8.28-75.19-3.01c-17.97,4.41-46.02,12.56-69.95,20.96
				c-23.08,10.05-42.02,19.91-42.44,24.56c-0.07,0.73,0.01,1.42,0.3,1.99c15.42,29.34,42.04,45.31,74.17,54.08
				c15.91,3.81,34.16,8.53,52.81,10.86c18.77,2.72,38.28,3.56,58.82,7.08c40.53,4.55,83.15,11.39,123.06,24.35
				c39.89,12.75,77.19,32.63,107.29,58.98c2.21,0.84-1.12-2.28-8.1-8.23c-7.1-5.08-17.7-12.65-29.68-21.22
				C1790.08,722.97,1757,704.88,1735.74,685.28z"/>
			<path class="st0" d="M1622.8,490.93c0.12,0.63,0.5,1.19,1.01,1.69c3.32,3.15,24.37-2.72,49.32-11.47
				c25.34-7.07,55.16-15.47,74.34-22.15c33.11-8.83,57.91-19.69,77.78-33.52c19.89-12.79,34.86-26.46,48-42.09
				c26.33-30.53,45.11-66.69,83.68-88c16.01-9.12,38.7-18.08,63.94-26.16c25.05-7.68,51.61-12.19,76.47-16.74
				c50.11-9.48,88.2-10.18,79.47-11.54c-32.62,2.72-68.47,8.78-102.54,12.38c-17.3,2.27-33.99,3.28-51.42,6.24
				c-17.26,2.91-34.48,5.81-51.59,8.7c-16.98,2.98-33.57,5.42-50.03,8.82c-16.43,4.17-32.69,8.29-48.71,12.35
				c-15.59,4.27-30.94,8.47-45.99,12.59c-14.88,5.38-29.22,10.94-42.92,16.49c-55.03,20.41-98.74,50.58-127.22,78.04
				C1628.64,427.49,1616.41,458.36,1622.8,490.93z"/>
			<path class="st0" d="M1925.54,655.8c-22.34-29.28-32.92-63.02-53.66-94.48c-10.4-15.38-23.51-30.8-42.29-41.87
				c-18.68-10.05-43.34-17.81-76.21-19.11c-18.95,0.75-48.81,2.43-74.13,6.23c-24.92,5.48-45.45,11.46-46.33,15.81
				c-0.14,0.68-0.13,1.35,0.12,1.94c13.04,30.67,38.27,50.85,69.03,65.1c31.51,17.67,68.34,26.57,107.97,42.38
				c9.68,3.31,19.61,6.71,29.75,10.18c9.95,4.34,20.11,8.78,30.42,13.28c9.94,4.29,20.02,8.66,30.21,13.06
				c10.08,5.05,20.19,11.07,30.06,16.61c9.65,5.67,19.35,11.38,29.08,17.1c9.47,5.73,18.97,13.74,28.02,20.63
				c18.22,14.86,34.88,27.69,50.34,46.4c4.8,2.8-13.43-16.54-37.77-38.54c-12.46-12.04-26.35-25.47-39.57-38.25
				C1947.39,680.19,1934.71,667.54,1925.54,655.8z"/>
			<path class="st0" d="M1877.1,450.02c-0.58,3.19,6.1,4.92,16.68,5.7c5.29,0.39,11.56,0.53,18.41,0.51
				c6.83,0.14,14.18,0.96,21.73,1.24c30.1,1.7,63.25,1.14,71.87,1.73c34.29,2.28,61.55-1.31,84.85-8.42
				c23.09-6.5,41.63-15.21,58.99-26.39c17.29-10.94,33.06-23.38,49.95-34.79c8.45-5.7,17.18-11.14,26.55-15.99
				c9.18-4.54,18.81-8.21,29.46-11.04c17.55-4.61,41.06-7.5,66.5-9.08c12.69-0.77,25.96-1.34,38.95-1.44
				c12.58,0.34,25.09,0.92,36.97,1.59c47.54,2.71,85.11,7.18,77.01,4.63c-128.56-10.35-270.23-30.11-386.24-20.7
				c-29.2,2.95-55.81,5.36-80.47,11.54c-24.77,6.53-46.68,14.15-65.13,23.19c-9.23,4.54-17.58,9.36-25.03,14.71
				c-7.52,5.89-14.1,12.11-19.69,18.7C1887.28,418.89,1880.1,433.55,1877.1,450.02z"/>
			<path class="st0" d="M1998.61,505.47c-7.85-2.68-38.54-8.77-67.37-13.56c-7.2-1.05-14.27-2.41-20.83-2.73
				c-6.57-0.15-12.62-0.11-17.72,0.18c-10.21,0.58-16.65,2.2-16.17,5.4c2.45,16.53,8.52,31.3,17.17,44.66
				c4.33,6.68,9.31,13.01,14.83,19.01c5.54,6.55,11.64,12.99,18.21,19.14c13.14,12.33,28.14,23.8,44.39,34.6
				c16.25,11.16,33.84,24.52,52.12,36.13c72.95,49.22,158.61,109.97,216.27,192.88c4.88,3.4-12.65-17.43-35.54-47.06
				c-5.72-7.54-11.77-15.51-17.9-23.61c-6.11-7.69-12.31-15.49-18.35-23.1c-11.96-15.6-23-31.44-30.35-45.39
				c-4.45-8.41-8.02-17.27-11.1-26.07c-3.11-8.43-5.72-17.13-8.21-25.98c-4.98-17.69-9.46-35.95-16.59-53.91
				c-7.18-17.73-16.88-36.16-32.9-51.67C2052.44,529.52,2030.09,516.15,1998.61,505.47z"/>
			<path class="st0" d="M2100.99,479.01c-10.58,9.76,97.03,44.4,112.56,53.63c64.6,24.07,112.98,26.25,160.98,19.55
				c24.13-3.61,46.64-7.11,69.81-9.89c23.16-2.75,46.79-4.38,71.78-2.01c20.97,1.58,45.65,7.58,71.17,15.13
				c25.63,7.43,52.25,16.28,76,24.57c46.82,17.26,80.58,33.57,74.31,28.82c-61.77-25.63-126.28-51.04-185.84-78.24
				c-62.59-23.92-120.85-49.53-178.97-64.72c-56.12-17.89-111.56-24.83-157.45-25.07C2168.34,442.54,2128.82,455.07,2100.99,479.01z
				"/>
			<path class="st0" d="M2089.66,524.07c12.07,36.08,35.73,64.6,66.43,91.68c30.33,29.38,68.93,52.81,110.4,83.28
				c42.19,27.22,86.97,61.31,132.45,95.14c44.12,38.09,89.22,75.51,127.06,122.57c5.54,4.23-16.76-20.89-46.39-53.1
				c-14.98-15.66-31.66-33.6-47.2-51.64c-15.49-18.18-29.88-36.27-40.67-50.72c-12.86-18.08-22.46-37.67-31.63-57.9
				c-9.19-20.21-17.74-41.46-29.46-60.43c-23.12-38.47-55.5-78.39-120.94-99.64C2193.69,534.73,2084.52,510.48,2089.66,524.07z"/>
			<path class="st0" d="M2695.88,807.22c-32.83-28.99-59.3-57.35-84.05-84.28c-24.57-27.15-49.49-50-75.87-72.02
				c-13.4-10.7-27.13-21.25-42.57-30.14c-15.68-8.54-32.54-16.26-51.02-22.92c-18.51-6.61-38.5-12.4-60.73-16.45
				c-22.76-3.08-47.51-4.76-74.47-4.68c0,0-9.45-4.43-27.16-12.73c-17.8-8.1-44.92-17.58-78.93-30.91
				c-68.63-23.66-169.23-57.35-295.21-63.63c-124.98-6.63-275.16,15.33-416.29,86.83c-70.38,35.08-140.11,78.04-204.56,129.75
				c-16.78,12.1-32.53,25.56-48.28,39.13c-15.73,13.57-31.93,26.75-47.4,40.76c-30.25,28.74-61.68,56.58-90.59,86.88
				c-118.28,118.77-225.61,247.28-327.28,366.04c-101.51,118.95-197.82,228.32-286.57,315.46
				c-88.28,87.74-169.52,151.59-227.9,193.61c-14.92,10.02-28.25,18.96-39.84,26.74c-11.65,7.68-22.02,13.42-30.19,18.48
				c-16.46,9.9-25.24,15.19-25.24,15.19l20.47,35.54c0,0,9.02-5.61,25.92-16.12c8.37-5.37,19.04-11.5,30.94-19.62
				c11.83-8.21,25.43-17.65,40.66-28.21c59.43-44.12,141.6-110.89,229.65-201.15c88.59-89.7,183.77-201.26,283.54-321.86
				c99.94-120.45,204.91-250.09,320.47-369.74c28.26-30.55,58.94-58.55,88.5-87.53c15.12-14.11,30.93-27.37,46.3-41.05
				c15.38-13.68,30.78-27.25,47.16-39.44c62.97-52.15,131.09-95.53,200.02-131.23c138.13-72.66,285.98-96.68,410.21-92.04
				c125.15,4.29,226.03,36.3,294.93,58.89c34.16,12.79,61.42,21.86,79.34,29.67c17.83,8.02,27.34,12.3,27.34,12.3
				c17.74,20.6,34.4,37.95,50.53,52.72c15.68,15.77,30.69,29.38,45.7,40.74c14.98,11.42,29.85,20.85,44.86,28.9
				c14.83,8.44,29.36,16.38,44.5,23.02c29.9,13.91,62.28,22.89,95.36,36.39C2621.32,771.75,2657,786.49,2695.88,807.22z"/>
			<path class="st0" d="M634.84,1086.89c-7.02-61.75,29.46-195.51,23.29-183.06c-19.58,107.96-62.83,217.63-89.31,308.53
				c-26.47,91.15-37.4,166,13.77,207.89c0.5,0.41,1.16,0.62,1.9,0.7c9.82,1.4,54.28-66.66,73.12-99.89
				C721.11,1206,642.75,1162.17,634.84,1086.89z"/>
			<path class="st0" d="M946.25,1348.96c-76.06,5.41-131.85-63.95-236.32,17.34c-30.97,23.54-92.77,76.69-91.36,85.63
				c0.14,0.73,0.41,1.37,0.86,1.82c46.52,47.67,122.24,26.94,211.3-16.24c89.3-43.21,189.68-107.2,290.26-140.3
				C1132.23,1288.52,1009.38,1343.94,946.25,1348.96z"/>
			<path class="st0" d="M783.36,911.48c-2.16-31.71,7.12-81.53,16.5-122.11c10.34-40.63,20.4-71.96,16.54-65.43
				c-28.2,111.13-74.58,222.66-101.93,316.17c-27.35,93.66-35.92,169.29,16.84,209.51c0.52,0.39,1.18,0.57,1.92,0.62
				c9.46,0.6,52.53-68.29,70.96-102.24C867.09,1031.99,789.98,988.16,783.36,911.48z"/>
			<path class="st0" d="M1091.4,1177.5c-74.89,3.91-130.87-66.68-234.3,15.04c-30.19,23.84-90.95,78.25-88.71,87.45
				c0.17,0.72,0.47,1.35,0.93,1.79c47.99,45.88,122.51,22.85,209.23-19.07c86.81-41.95,186.11-102.44,284.3-126.86
				c5.39-3.56-21.71,5.63-58.22,16.09C1168.19,1163.36,1122.35,1176.46,1091.4,1177.5z"/>
			<path class="st0" d="M947.5,731.1c0.01-32.44,12.99-83.17,28.33-124.28c14.43-41.25,28.46-73.06,23.87-66.5
				c-84.9,225.11-223.35,451.23-118.57,531.72c0.51,0.39,1.18,0.58,1.92,0.63c9.29,0.56,53.23-68.11,72.82-101.66
				C1023.32,856.52,947.69,809.43,947.5,731.1z"/>
			<path class="st0" d="M1239.78,1014.34c-73.65-2.47-126.59-74.94-232.12,2.51c-30.76,22.77-91.87,76.33-89.56,85.7
				c0.17,0.72,0.46,1.35,0.92,1.8c48.01,45.8,121.75,23.89,207.79-13.89c86.03-37.17,185.65-87.93,280.55-99.81
				c5.27-2.95-20.9,2.74-56.53,9.44C1315.11,1005.89,1270.09,1015.44,1239.78,1014.34z"/>
			<path class="st0" d="M1037.8,899.19c0.49,0.41,1.15,0.63,1.89,0.71c8.91,0.68,57.11-65.24,78.93-97.77
				c38-54.76,39.81-95.64,33.89-132.26c-6.29-36.97-22.15-70.33-17.28-110.55c4.14-33.04,27.45-82.75,48.58-123.94
				c23.33-39.96,44.83-70.7,38.49-64.62c-33.02,53.14-67.36,108.38-101.04,162.58c-14.98,26.51-29.8,52.72-44.18,78.15
				c-14.07,25.15-25.19,50.27-35.95,73.72C999.74,779.76,986.8,856.83,1037.8,899.19z"/>
			<path class="st0" d="M1550.82,875.05c5.05-1.51-19.18-1.72-53.26-2.85c-33.55,1.39-77.52,1.44-106.66-3.42
				c-35.09-5.69-64.48-27.35-98.75-40.15c-34.6-13.21-73.67-15.71-129.01,18.88c-31.82,20.61-96.09,70.22-93.87,80
				c0.14,0.73,0.41,1.37,0.85,1.84c45.98,47.86,119.97,29.43,206.22,1.1c21.7-6.67,43.68-15.46,66.69-22.23
				c22.99-6.81,46.28-13.75,69.57-20.14c23.55-5.28,47.17-9.14,70.26-12.24l17.25-1.97l17.19-0.18
				C1528.67,873.74,1539.86,874.17,1550.82,875.05z"/>
			<path class="st0" d="M1208.79,731.74c0.45,0.46,1.09,0.74,1.82,0.9c4.68,1,20.48-13.91,38.22-33.03
				c17.88-18.93,39.4-40.38,52.23-55.46c21.73-25.98,36.59-46.8,44.46-67.99c8.25-20.73,10.04-40.97,10.66-59.46
				c0.88-37.6-8.4-73.43,5.59-112.96c5.47-16.67,17.46-35.81,32-55.88c14.73-19.8,31.11-41.53,48.47-58.84
				c34.53-34.87,65.27-60.93,57.05-56.2c-24.46,24.17-50.57,46.83-75.11,70.64c-23.81,24.64-48.6,47.82-70.87,71.94
				c-21.63,24.71-43.48,48.04-62.32,71.79c-18.38,24.13-35.71,47.23-50.62,69.54C1183.06,608.04,1162.23,684.8,1208.79,731.74z"/>
			<path class="st0" d="M1554.64,755.79c-31.71-13.09-56.47-39.96-87.61-59.04c-15.78-9.85-32.6-16-53.44-17.66
				c-20.55-1.15-45.88,1.44-74.51,16.02c-16.78,8.35-43.33,21.55-64.44,35.69c-20.95,14.32-37.77,27.59-37.34,32.27
				c0.07,0.73,0.26,1.4,0.66,1.9c20.51,26.06,49.68,36.69,83.89,38.48c8.57,0.46,17.42,0.28,26.62-0.23
				c9.35-0.15,18.99-0.73,28.85-1.66c19.72-1.85,40.36-5.08,61.54-9.04c20.96-2.88,43.06-5.92,65.87-9.05
				c22.33-2.66,45.1-3.28,67.2-4.44c22.27-0.28,44.38,2.39,65.29,4.81c21.07,3.54,41.28,10.39,59.83,17.42
				c4.56-0.18-16.02-6.52-46.19-16.53c-15.1-5.13-32.26-8.18-49.36-13.4C1584.48,766.44,1567.61,760.72,1554.64,755.79z"/>
		</g>
	</g>
</g>
</svg>
