<svg width="15" height="15" viewBox="0 0 15 15" fill="none" xmlns="http://www.w3.org/2000/svg">
<path d="M4.50391 7.77508C5.08273 8.97041 6.04929 9.93448 7.24609 10.5102C7.33437 10.552 7.43202 10.5701 7.52942 10.5627C7.62681 10.5553 7.72061 10.5227 7.80156 10.4681L9.55937 9.29383C9.63704 9.24116 9.72678 9.20902 9.82022 9.20041C9.91367 9.19181 10.0078 9.20701 10.0938 9.24462L13.3844 10.6579C13.4968 10.7047 13.5908 10.7872 13.6518 10.8926C13.7128 10.9981 13.7374 11.1207 13.7219 11.2415C13.6176 12.0555 13.2202 12.8037 12.6042 13.3459C11.9882 13.8882 11.1957 14.1874 10.375 14.1876C7.83887 14.1876 5.40661 13.1801 3.61329 11.3868C1.81997 9.59348 0.8125 7.16122 0.8125 4.62508C0.812685 3.80439 1.1119 3.01189 1.65416 2.39587C2.19642 1.77984 2.94456 1.38251 3.75859 1.27821C3.87942 1.26269 4.00199 1.28732 4.10745 1.3483C4.2129 1.40929 4.29538 1.50324 4.34219 1.61571L5.75547 4.91337C5.79222 4.99798 5.8076 5.09034 5.80024 5.18231C5.79288 5.27427 5.76302 5.36301 5.71328 5.44071L4.53906 7.22665C4.48679 7.30742 4.4561 7.40026 4.44995 7.49628C4.44379 7.5923 4.46237 7.68829 4.50391 7.77508V7.77508Z" stroke="#8F8996" stroke-width="1.13" stroke-linecap="round" stroke-linejoin="round"/>
</svg>
