<svg width="46" height="46" viewBox="0 0 46 46" fill="none" xmlns="http://www.w3.org/2000/svg">
<rect width="46" height="46" rx="23" fill="#33CCFF"/>
<path d="M34.4168 15.7173C33.6573 16.0445 32.8588 16.2723 32.0411 16.3951C32.4234 16.3296 32.9859 15.6408 33.2098 15.362C33.55 14.9415 33.8093 14.4614 33.9744 13.9462C33.9744 13.908 34.0127 13.8533 33.9744 13.826C33.9552 13.8154 33.9336 13.8099 33.9116 13.8099C33.8897 13.8099 33.8681 13.8154 33.8488 13.826C32.9609 14.3072 32.0159 14.6746 31.0362 14.9192C31.002 14.9297 30.9657 14.9306 30.931 14.9219C30.8964 14.9133 30.8648 14.8953 30.8395 14.87C30.7633 14.7792 30.6812 14.6933 30.5938 14.6131C30.1942 14.2548 29.7408 13.9615 29.2502 13.744C28.5881 13.4721 27.8728 13.3543 27.1585 13.3996C26.4654 13.4434 25.7887 13.6295 25.1705 13.9462C24.5618 14.2802 24.0267 14.7339 23.5976 15.28C23.1462 15.8421 22.8203 16.4945 22.6419 17.1932C22.4947 17.8579 22.478 18.5448 22.5927 19.2158C22.5927 19.3306 22.5927 19.347 22.4944 19.3306C18.6004 18.7566 15.4054 17.3736 12.7948 14.4054C12.6801 14.2742 12.62 14.2742 12.5272 14.4054C11.3912 16.1328 11.9428 18.8659 13.3628 20.2161C13.5539 20.3965 13.7506 20.5714 13.9581 20.7354C13.307 20.6892 12.6719 20.5126 12.0903 20.2161C11.981 20.1451 11.921 20.1833 11.9155 20.3145C11.9 20.4964 11.9 20.6793 11.9155 20.8612C12.0295 21.7328 12.3727 22.5585 12.91 23.2539C13.4474 23.9493 14.1596 24.4893 14.9739 24.8188C15.1724 24.9039 15.3793 24.968 15.5911 25.0101C14.9884 25.1289 14.3702 25.1473 13.7615 25.0648C13.6304 25.0374 13.5812 25.1085 13.6304 25.2342C14.4332 27.4208 16.1755 28.0877 17.4534 28.4594C17.6282 28.4867 17.803 28.4867 17.9996 28.5304C17.9996 28.5304 17.9996 28.5304 17.9668 28.5632C17.59 29.252 16.0662 29.7166 15.3672 29.9571C14.0912 30.4159 12.7307 30.5912 11.3803 30.471C11.1673 30.4382 11.1181 30.4436 11.0635 30.471C11.0089 30.4983 11.0635 30.5584 11.1236 30.6131C11.3967 30.7935 11.6697 30.952 11.9537 31.1051C12.7992 31.5666 13.693 31.9333 14.6189 32.1983C19.4141 33.5212 24.8101 32.5482 28.4092 28.9677C31.2382 26.158 32.2322 22.2824 32.2322 18.4013C32.2322 18.2537 32.4125 18.1662 32.5162 18.0897C33.232 17.5315 33.863 16.8724 34.3895 16.1328C34.4807 16.0225 34.5274 15.8821 34.5206 15.7392C34.5206 15.6572 34.5206 15.6736 34.4168 15.7173Z" fill="white"/>
</svg>
