<svg width="46" height="46" viewBox="0 0 46 46" fill="none" xmlns="http://www.w3.org/2000/svg">
<rect width="46" height="46" rx="23" fill="#00D95F"/>
<path d="M11.5 33.6484L13.1502 27.5125C11.8194 25.1223 11.3965 22.3331 11.9593 19.6568C12.5221 16.9805 14.0328 14.5965 16.2141 12.9424C18.3954 11.2883 21.101 10.475 23.8345 10.6517C26.568 10.8284 29.1459 11.9833 31.0953 13.9044C33.0447 15.8256 34.2348 18.3841 34.4472 21.1106C34.6595 23.837 33.8799 26.5485 32.2514 28.7474C30.6229 30.9463 28.2548 32.4851 25.5815 33.0816C22.9082 33.678 20.1092 33.292 17.698 31.9944L11.5 33.6484ZM17.9968 29.6984L18.3802 29.9254C20.1266 30.9588 22.1665 31.3865 24.1819 31.1417C26.1972 30.8969 28.0749 29.9935 29.5222 28.5721C30.9696 27.1507 31.9053 25.2913 32.1836 23.2835C32.4618 21.2758 32.0671 19.2326 31.0607 17.4722C30.0544 15.7119 28.493 14.3333 26.62 13.5514C24.7469 12.7694 22.6674 12.628 20.7054 13.1492C18.7434 13.6703 17.0093 14.8248 15.7731 16.4327C14.537 18.0405 13.8683 20.0114 13.8713 22.0383C13.8697 23.7189 14.3353 25.367 15.2162 26.7991L15.4566 27.1947L14.534 30.6194L17.9968 29.6984Z" fill="white"/>
<path fill-rule="evenodd" clip-rule="evenodd" d="M27.3004 23.6139C27.0757 23.433 26.8126 23.3056 26.5312 23.2416C26.2497 23.1775 25.9573 23.1784 25.6762 23.2442C25.2539 23.4193 24.9811 24.0809 24.7082 24.4117C24.6507 24.491 24.5661 24.5466 24.4704 24.5681C24.3747 24.5896 24.2745 24.5755 24.1885 24.5285C22.6424 23.9239 21.3465 22.8153 20.5112 21.3827C20.44 21.2933 20.4063 21.1798 20.4172 21.0661C20.4281 20.9524 20.4828 20.8473 20.5697 20.773C20.8741 20.4722 21.0975 20.0997 21.2194 19.6898C21.2465 19.2378 21.1427 18.7875 20.9205 18.3926C20.7488 17.8391 20.4219 17.3462 19.9785 16.9722C19.7498 16.8695 19.4963 16.8351 19.2484 16.873C19.0005 16.911 18.769 17.0198 18.5817 17.1862C18.2565 17.4663 17.9984 17.8157 17.8264 18.2086C17.6543 18.6014 17.5728 19.0278 17.5877 19.4563C17.5887 19.697 17.6192 19.9366 17.6786 20.1698C17.8295 20.7302 18.0615 21.2655 18.3673 21.7589C18.5879 22.1369 18.8286 22.5028 19.0884 22.8551C19.9327 24.0122 20.994 24.9946 22.2134 25.7478C22.8253 26.1306 23.4793 26.4418 24.1625 26.6753C24.8721 26.9965 25.6557 27.1198 26.4299 27.0321C26.871 26.9654 27.2889 26.7916 27.6469 26.5258C28.0049 26.26 28.292 25.9104 28.4829 25.5079C28.595 25.2647 28.6291 24.9928 28.5803 24.7295C28.4634 24.1912 27.7422 23.8734 27.3004 23.6139Z" fill="white"/>
</svg>
